<?xml version="1.0" standalone="no"?>
<!DOCTYPE svg PUBLIC "-//W3C//DTD SVG 20010904//EN"
 "http://www.w3.org/TR/2001/REC-SVG-20010904/DTD/svg10.dtd">
<svg version="1.0" xmlns="http://www.w3.org/2000/svg"
 width="2000.000000pt" height="1500.000000pt" viewBox="0 0 2000.000000 1500.000000"
 preserveAspectRatio="xMidYMid meet">

<g transform="translate(0.000000,1500.000000) scale(0.100000,-0.100000)"
fill="#ff0000" stroke="none">
<path d="M0 7500 l0 -7500 10000 0 10000 0 0 7500 0 7500 -10000 0 -10000 0 0
-7500z m15066 4195 c594 -57 1179 -221 1674 -471 144 -73 337 -185 394 -228
17 -14 11 -31 -129 -363 -81 -191 -149 -349 -150 -351 -1 -2 -45 24 -96 56
-537 337 -1160 546 -1829 612 -147 15 -578 15 -740 0 -707 -63 -1179 -265
-1487 -634 -219 -262 -314 -547 -300 -901 12 -333 107 -558 323 -765 340 -327
668 -459 1944 -785 555 -142 807 -213 1125 -319 479 -160 688 -261 955 -460
139 -104 382 -350 459 -465 147 -221 237 -483 271 -786 15 -134 12 -437 -5
-567 -38 -289 -138 -566 -297 -822 -235 -379 -628 -682 -1153 -889 -292 -115
-595 -186 -990 -234 -193 -23 -1012 -26 -1190 -5 -684 83 -1214 233 -1725 489
-211 105 -348 188 -505 308 -116 88 -285 240 -285 256 0 5 77 160 171 344
l171 335 64 -60 c490 -458 1297 -805 2118 -910 400 -51 903 -43 1296 21 643
105 1106 390 1334 820 93 174 136 362 136 589 0 455 -171 746 -602 1027 -273
179 -628 303 -1478 519 -502 128 -638 165 -970 265 -812 243 -1151 416 -1514
769 -155 151 -253 278 -329 427 -133 260 -197 559 -197 918 0 263 29 450 106
685 193 588 622 1024 1290 1310 304 131 699 225 1109 264 203 20 827 20 1031
1z m-11676 -1890 l0 -1845 2585 0 2585 0 0 1845 0 1845 435 0 435 0 0 -4145 0
-4145 -435 0 -435 0 0 1910 0 1910 -2585 0 -2585 0 0 -1910 0 -1910 -440 0
-440 0 0 4145 0 4145 440 0 440 0 0 -1845z"/>
</g>
</svg>
